<svg id="svg" xmlns="http://www.w3.org/2000/svg" xmlns:xlink="http://www.w3.org/1999/xlink" width="400" height="400" viewBox="0, 0, 400,400"><g id="svgg"><path id="path0" d="M188.867 20.972 C 156.574 25.158,127.997 51.657,121.546 83.398 C 116.233 109.544,122.667 133.703,141.727 159.180 C 148.295 167.959,177.387 200.974,194.864 219.483 L 200.166 225.099 201.157 223.932 C 257.075 158.105,263.098 150.363,271.444 133.594 C 280.927 114.541,282.663 95.876,276.763 76.412 C 268.140 47.963,240.448 24.011,212.817 21.100 C 209.390 20.739,191.407 20.643,188.867 20.972 M209.053 64.005 C 239.687 72.092,249.347 109.305,226.387 130.782 C 201.564 154.003,161.308 136.452,161.161 102.344 C 161.051 76.895,185.063 57.673,209.053 64.005 M273.656 151.830 C 271.950 154.555,270.544 157.140,270.531 157.574 C 270.501 158.591,270.443 158.560,300.781 174.099 C 353.346 201.023,363.319 206.240,363.361 206.836 C 363.393 207.287,345.579 221.405,319.511 241.586 C 309.532 249.312,300.291 256.473,298.977 257.500 L 296.586 259.367 265.022 231.391 L 233.459 203.415 231.183 205.770 C 229.931 207.065,228.906 208.293,228.906 208.497 C 228.906 209.089,239.605 218.958,260.156 237.321 C 278.347 253.575,288.346 262.889,288.174 263.418 C 287.922 264.194,201.085 298.787,197.678 299.468 C 196.536 299.697,198.186 301.718,133.206 220.508 C 93.373 170.726,87.091 162.758,87.427 162.444 C 87.738 162.152,114.152 161.321,122.991 161.325 C 128.245 161.328,128.961 161.253,128.758 160.724 C 128.630 160.391,126.810 157.316,124.712 153.889 L 120.898 147.659 102.539 147.668 C 92.441 147.673,81.511 147.841,78.249 148.042 L 72.318 148.407 51.100 162.945 C 11.547 190.048,13.040 188.537,18.035 196.401 C 30.735 216.397,128.371 359.458,141.176 376.834 C 142.632 378.810,144.019 379.469,146.129 379.185 C 149.535 378.729,148.827 379.530,186.635 333.302 L 203.646 312.502 252.311 293.112 C 299.294 274.392,301.078 273.645,303.906 271.490 C 308.551 267.951,362.499 226.098,372.855 217.999 C 383.406 209.749,384.585 208.468,384.546 205.306 C 384.502 201.740,383.518 200.924,371.680 194.638 C 357.387 187.048,277.937 146.875,277.223 146.876 C 276.967 146.876,275.362 149.105,273.656 151.830 M85.287 173.468 C 89.763 178.930,102.677 194.912,113.985 208.984 C 134.291 234.254,175.716 285.768,186.055 298.607 C 189.331 302.675,191.257 305.383,191.058 305.638 C 189.962 307.045,152.729 352.525,149.843 355.983 C 146.603 359.863,146.272 360.150,145.782 359.498 C 140.623 352.651,33.231 195.295,32.607 193.669 C 32.367 193.044,34.329 191.660,61.691 173.152 C 69.733 167.713,76.501 163.325,76.730 163.401 C 76.960 163.476,80.811 168.007,85.287 173.468 " stroke="none" fill="#000000" fill-rule="evenodd"></path></g></svg>