 <svg  version="1.0" xmlns="http://www.w3.org/2000/svg"  width="30.000000pt" height="30.000000pt" viewBox="0 0 30.000000 30.000000"  preserveAspectRatio="xMidYMid meet">  <g transform="translate(0.000000,30.000000) scale(0.100000,-0.100000)" fill="#42b883" stroke="none"> <path d="M40 251 c-13 -25 -13 -177 0 -202 10 -17 22 -19 108 -19 63 0 102 4 110 12 16 16 16 200 0 216 -8 8 -47 12 -110 12 -86 0 -98 -2 -108 -19z m92 -76 c7 -25 15 -45 19 -45 4 0 12 20 18 45 9 34 16 45 31 45 18 0 20 -7 20 -70 0 -58 -3 -70 -16 -70 -14 0 -16 8 -11 43 5 40 5 41 -8 17 -8 -14 -14 -33 -15 -42 0 -11 -8 -18 -19 -18 -14 0 -21 10 -25 35 -9 49 -25 53 -19 5 5 -33 3 -40 -11 -40 -13 0 -16 12 -16 70 0 63 2 70 20 70 15 0 23 -11 32 -45z"/> </g> </svg> 